<svg width="125" height="125" viewBox="0 0 125 125" fill="none" xmlns="http://www.w3.org/2000/svg">
<g clip-path="url(#clip0)">
<path d="M49.8047 55.6638V36.3904H63.7109C71.3125 36.3904 75.7578 39.9607 75.7578 46.0544C75.7578 52.3201 71.0391 55.6638 61.9766 55.6638H49.8047ZM49.8047 85.0544H64.6328C73.8828 85.0544 78.7734 81.3044 78.7734 74.2966C78.7734 67.3826 73.6953 63.7654 64.0391 63.7654H49.8047V85.0544Z" fill="white"/>
<path d="M31.25 -2.2522C22.962 -2.2522 15.0134 1.0402 9.15291 6.90072C3.2924 12.7612 0 20.7098 0 28.9978V91.4978C0 99.7858 3.2924 107.734 9.15291 113.595C15.0134 119.455 22.962 122.748 31.25 122.748H93.75C102.038 122.748 109.987 119.455 115.847 113.595C121.708 107.734 125 99.7858 125 91.4978V28.9978C125 20.7098 121.708 12.7612 115.847 6.90072C109.987 1.0402 102.038 -2.2522 93.75 -2.2522L31.25 -2.2522ZM39.5312 91.4978V25.4431H66.0859C78.4844 25.4431 85.9531 31.7634 85.9531 41.9275C85.9531 48.8337 80.875 55.0134 74.3672 56.115V56.8962C83.2969 57.8103 89.2422 64.1697 89.2422 72.7791C89.2422 84.4041 80.7734 91.4978 66.6797 91.4978H39.5312Z" fill="white"/>
</g>
<defs>
<clipPath id="clip0">
<rect width="125" height="125" fill="white"/>
</clipPath>
</defs>
</svg>
