<svg width="134" height="134" viewBox="0 0 134 134" fill="none" xmlns="http://www.w3.org/2000/svg">
<path d="M11.6934 0C10.5161 0 9.59353 1.01182 9.70189 2.18409L20.3738 117.635C20.4499 118.458 21.0239 119.149 21.8186 119.375L67.4532 132.345C67.8107 132.446 68.1893 132.446 68.5468 132.345L114.181 119.375C114.976 119.149 115.55 118.458 115.626 117.635L126.298 2.18408C126.406 1.01181 125.484 0 124.307 0H11.6934ZM107.908 39.3134L106.367 54.4051L101.87 98.2463C101.783 99.0904 101.173 99.7881 100.348 99.9867L67.0046 108.013C67.0015 108.014 66.9986 108.015 66.9957 108.016V108.016C66.9861 108.021 66.9752 108.022 66.9649 108.019L33.66 99.9789C32.8357 99.7799 32.2265 99.0827 32.1398 98.2392L30.0798 78.1917C29.9586 77.0125 30.8839 75.9873 32.0693 75.9873H45.0473C46.0727 75.9873 46.9319 76.7627 47.0368 77.7826L47.9699 86.8515C48.0571 87.6991 48.6718 88.3985 49.5014 88.5936L66.9642 92.7019C66.9747 92.7043 66.9857 92.7016 66.9938 92.6945V92.6945C66.9979 92.691 67.0028 92.6885 67.0081 92.6872L84.5313 88.5689C85.3448 88.3777 85.9537 87.7009 86.0581 86.8718L88.1752 70.0586C88.3258 68.8624 87.3917 67.8058 86.1861 67.8087L30.8176 67.9409C29.8037 67.9433 28.9484 67.1866 28.8272 66.18L27.622 56.171C27.4796 54.9882 28.3962 53.944 29.5874 53.932L88.0656 53.339C89.0972 53.3286 89.9516 52.5352 90.0383 51.5073L90.9653 40.5191C91.0639 39.3504 90.1404 38.3481 88.9676 38.351L27.5327 38.4997C26.4874 38.5022 25.6165 37.6994 25.5341 36.6574L24.7501 26.7465C24.6581 25.5834 25.5771 24.5888 26.7439 24.5888H67H107.205C108.39 24.5888 109.315 25.614 109.194 26.7931L107.908 39.3134Z" fill="white"/>
</svg>
