<svg width="132" height="132" viewBox="0 0 132 132" fill="none" xmlns="http://www.w3.org/2000/svg">
<path d="M9.85849 0C8.64532 0 7.74139 0.988627 7.84903 2.19695L18.0768 116.918C18.1844 118.126 19.2286 119.38 20.3981 119.705L63.7993 131.756C64.9684 132.08 66.8812 132.08 68.0507 131.756L111.584 119.686C112.753 119.362 113.798 118.108 113.906 116.9L124.151 2.19695C124.259 0.988627 123.354 0 122.141 0H9.85849ZM102.369 26.3109C102.273 27.3886 102.106 29.2596 101.998 30.4679L101.728 33.4779C101.62 34.6858 101.466 36.4133 101.384 37.3164C101.303 38.2198 101.226 38.9588 101.211 38.9588C101.198 38.9588 100.194 38.9588 98.9805 38.9588H68.2056C66.9924 38.9588 65.9896 38.9588 65.9764 38.9588C65.9632 38.9588 64.9595 38.9588 63.7464 38.9588H47.5384C46.3252 38.9588 45.4213 39.9474 45.5289 41.1557L46.4743 51.7236C46.5819 52.9315 47.6632 53.9205 48.8764 53.9205H63.7468C64.96 53.9205 65.9636 53.9205 65.9769 53.9205C65.9901 53.9205 66.9928 53.9205 68.206 53.9205H93.7661C94.9792 53.9205 96.8568 53.9205 97.938 53.9205C99.0184 53.9205 99.8231 54.8024 99.7252 55.8801C99.6268 56.9579 99.4587 58.8293 99.3511 60.0371L96.3111 94.1066C96.2025 95.3149 96.0653 96.8585 96.0062 97.537C95.9458 98.2151 94.9404 99.0352 93.7713 99.3594L68.1257 106.47C66.9567 106.794 65.9852 107.062 65.9672 107.066C65.9491 107.07 64.9781 106.808 63.8086 106.484L38.1356 99.3599C36.9665 99.0356 35.9219 97.7814 35.8142 96.5731L34.1617 78.0248C34.054 76.8164 34.9589 75.8278 36.172 75.8278H38.515C39.7282 75.8278 41.7134 75.8278 42.9265 75.8278H46.4205C47.6337 75.8278 48.714 76.8164 48.8226 78.0248L49.4706 85.2857C49.5783 86.494 50.6242 87.7412 51.7959 88.0575L63.8046 91.3004C64.9754 91.6167 65.938 91.8757 65.9433 91.8757C65.9486 91.8757 66.9108 91.6163 68.082 91.3L80.1123 88.0491C81.2831 87.7328 82.33 86.4852 82.4385 85.2773L83.743 70.7298C83.8515 69.5215 82.9476 68.5329 81.7345 68.5329H68.206C66.9928 68.5329 65.9901 68.5329 65.9769 68.5329C65.9636 68.5329 64.96 68.5329 63.7468 68.5329H35.5178C34.3046 68.5329 33.2242 67.5438 33.1166 66.3359L29.9156 30.4674C29.8079 29.2591 29.6407 27.3886 29.5441 26.3104C29.4484 25.2327 30.362 24.3508 31.5752 24.3508H63.7468C64.96 24.3508 65.9636 24.3508 65.9769 24.3508C65.9901 24.3508 66.9928 24.3508 68.206 24.3508H100.339C101.552 24.3508 102.466 25.2327 102.369 26.3109Z" fill="white"/>
</svg>
