<svg width="141" height="141" viewBox="0 0 141 141" fill="none" xmlns="http://www.w3.org/2000/svg">
<path d="M141 70.5C141 79.6851 139.245 88.4588 136.048 96.5073C134.338 100.812 132.218 104.91 129.731 108.748C126.635 113.537 122.972 117.925 118.84 121.815C116.42 124.097 113.842 126.207 111.119 128.129C99.638 136.238 85.6272 141 70.5 141C55.3728 141 41.362 136.238 29.8804 128.129C26.4733 125.723 23.2909 123.027 20.3701 120.069C7.7751 107.335 0 89.8228 0 70.5C0 51.1772 7.7751 33.6646 20.3701 20.9313C23.4636 17.8007 26.8503 14.9603 30.4846 12.4512C41.8511 4.5982 55.6374 0 70.5 0C85.3626 0 99.1489 4.5982 110.515 12.4512C113.292 14.3649 115.922 16.4769 118.388 18.7646C122.707 22.7586 126.523 27.2907 129.732 32.2515C132.218 36.0902 134.339 40.1878 136.048 44.4927C139.245 52.5412 141 61.3149 141 70.5Z" fill="#151515"/>
<path d="M107.691 64.1579C105.729 58.4672 97.6835 58.4672 96.114 63.1767C94.5443 67.8861 99.8425 70.6332 108.084 73.3807C116.326 76.128 121.428 83.3887 120.447 89.864C119.465 96.3392 116.718 104.777 100.431 104.777C90.2521 104.777 84.595 98.4151 81.7835 93.6437L91.0121 88.0979C91.0121 88.0979 94.1519 94.7698 100.039 94.7698C105.926 94.7698 108.28 92.8076 108.28 88.2943C108.28 82.7999 89.2458 80.8378 86.3024 71.4186C83.359 61.9994 87.2836 48.6559 101.02 49.6368C109.605 50.2501 114.434 54.4658 116.848 57.5414L107.691 64.1579Z" fill="#F2F2F2"/>
<path d="M64.9134 50.6184C64.9134 50.6184 64.9134 83.7812 64.9134 88.2946C64.9134 92.8077 60.9888 95.1628 57.0642 94.3777C53.1396 93.5928 51.3735 88.8834 51.3735 88.8834L42.347 94.9665C42.347 94.9665 44.3092 103.993 56.6718 104.778C69.0343 105.563 76.0984 98.1062 76.0984 91.8268C76.0984 85.5473 76.0984 50.6184 76.0984 50.6184H64.9134Z" fill="#F2F2F2"/>
<path d="M20.3701 12.4514V120.069C23.2908 123.027 26.4733 125.723 29.8804 128.129H111.119C113.842 126.207 116.42 124.098 118.84 121.816H26.6834V18.7647H129.731V108.749C132.217 104.91 134.338 100.812 136.048 96.5075V12.4514H20.3701Z" fill="#F2F2F2"/>
<path d="M24.1945 104.582C30.3717 104.582 35.3794 99.574 35.3794 93.3967C35.3794 87.2194 30.3717 82.2117 24.1945 82.2117C18.0172 82.2117 13.0095 87.2194 13.0095 93.3967C13.0095 99.574 18.0172 104.582 24.1945 104.582Z" fill="#585858"/>
</svg>
