<svg width="130" height="130" viewBox="0 0 130 130" fill="none" xmlns="http://www.w3.org/2000/svg">
<path d="M77.6547 7.82005C77.3805 7.86068 77.1063 7.94193 76.8422 8.0638C74.6078 9.17083 72.0688 12.4615 71.5813 13.1115C71.5508 13.1521 71.5203 13.1927 71.5 13.2333C68.9914 16.9911 67.6508 21.3888 67.6 25.9693C67.5695 29.4021 68.2399 32.8044 69.6008 36.0849C72.7695 43.6919 79.3508 49.9888 87.1813 52.9341C87.4453 53.0255 87.6992 53.1169 88.1563 53.2794C88.1969 53.2997 88.5828 53.4216 88.6438 53.4318L88.9281 53.5333C89.3344 53.6654 89.7508 53.7974 90.157 53.8786C92.2188 54.2951 94.2297 54.5286 96.1188 54.5896C96.4437 54.5896 96.7688 54.5997 97.0938 54.5997C111.343 54.5997 116.868 44.5451 118.706 41.1935C118.889 40.8685 119.021 40.6044 119.143 40.4419C119.143 40.4318 119.143 40.4318 119.153 40.4216C119.955 39.2333 119.651 37.6185 118.463 36.806C117.284 36.0036 115.67 36.3083 114.857 37.4966H114.847C111.048 43.0927 104.548 44.7888 95.5398 42.5544C94.8695 42.3919 94.1383 42.138 93.4883 41.8943C92.6352 41.5896 91.782 41.2341 90.9899 40.8482C89.4156 40.0661 87.9328 39.1318 86.5922 38.0958C78.6703 31.9513 75.5727 19.1646 80.2039 11.781C80.8234 10.7958 80.7117 9.51614 79.9297 8.65286C79.3406 8.00286 78.4875 7.70833 77.6547 7.82005ZM54.6203 12.9997C54.0313 12.9896 53.432 13.1826 52.9445 13.5888C49.0141 16.788 44.9922 22.0286 44.8195 22.2419C44.7992 22.2826 44.7789 22.313 44.7484 22.3536C37.6391 32.7029 37.1008 47.4294 43.3875 59.8708C44.3727 61.8411 45.4898 63.7201 46.6781 65.4466L47.0336 65.9544C48.0391 67.4271 49.1664 69.0927 50.6086 70.3927C51.1063 70.9615 51.6445 71.5099 52.1727 72.038L52.4266 72.3021L52.6399 72.5154C53.1781 73.0333 53.7266 73.5615 54.2953 74.0693H54.3055C54.3461 74.1302 54.407 74.1708 54.4578 74.2216C55.0977 74.7904 55.7477 75.3286 56.6109 76.0091L56.8445 76.1818C57.5149 76.7201 58.1953 77.2279 58.8961 77.7255C58.9672 77.7763 59.0383 77.8271 59.1094 77.8779C59.3531 78.0404 59.5969 78.1927 59.8406 78.3654L60.0844 78.5279L60.3688 78.7107C60.8867 79.056 61.3945 79.3708 62.1156 79.7872C62.5828 80.0716 63.0805 80.356 63.4055 80.5185C63.5477 80.5997 63.7 80.681 64.0555 80.874L64.8477 81.2904C64.8883 81.3107 65.0711 81.3919 65.1117 81.4122C65.6297 81.6763 66.168 81.9302 66.7063 82.174L67.5289 82.5396C68.0672 82.7732 68.6156 82.9966 69.2859 83.2505L69.5906 83.3622C69.6109 83.3826 69.8649 83.474 69.8852 83.4841C70.3727 83.6568 70.8703 83.8294 71.368 83.9919L72.5055 84.3677C73.0742 84.5607 73.7344 84.7841 74.4555 84.906C78 85.4951 81.443 85.7997 84.7031 85.7997C85.0891 85.7997 85.475 85.7896 85.8508 85.7896C114.552 85.1599 122.017 60.7747 122.088 60.531C122.444 59.3021 121.865 57.9919 120.707 57.4435C119.549 56.8951 118.168 57.281 117.447 58.3372C110.175 68.9607 96.4234 73.4497 82.418 69.7529C81.768 69.5904 81.1383 69.4076 80.3563 69.1536C80.2242 69.113 80.1125 69.0724 79.8992 68.9911C79.4422 68.849 78.9953 68.6966 78.4875 68.5036L77.7664 68.2294C77.35 68.0669 76.9336 67.9044 76.4258 67.681L76.0906 67.5286C75.4711 67.2646 74.8719 66.9701 74.3336 66.706L72.8508 65.9341C72.5156 65.7716 72.2211 65.5888 71.7641 65.3146L71.5102 65.1724L71.2563 65.0201C70.8805 64.7966 70.5047 64.563 70.1594 64.3193L69.9156 64.1669C69.8953 64.1568 69.6922 64.0146 69.6719 63.9943C69.3672 63.8013 69.0727 63.6083 68.7883 63.4255C68.1586 62.9786 67.5391 62.5115 66.818 61.9427L66.5336 61.7091C59.8305 56.3568 54.8742 49.2068 52.5484 41.5388C50.3852 34.5005 51.9899 25.2888 56.8445 16.8997C57.4742 15.813 57.2406 14.4318 56.2758 13.6193C55.7984 13.213 55.2094 12.9997 54.6203 12.9997ZM26.0102 20.7997C25.3906 20.7997 24.7609 21.0232 24.2633 21.4701C19.2969 25.9286 15.5797 31.7076 15.1734 32.3677C4.55001 47.8357 6.60157 71.8755 13.8938 86.5716C14.0359 86.8763 14.1883 87.1708 14.3406 87.4654L14.4422 87.6279C14.5742 87.9224 14.7266 88.2271 14.7774 88.288C14.8586 88.481 14.9805 88.6943 15.0313 88.7552C15.1531 89.0091 15.275 89.2326 15.4984 89.6185L16.3313 91.0505C16.4531 91.2435 16.575 91.4466 16.6156 91.5177C16.7781 91.7818 16.9508 92.056 17.1234 92.3302L17.5297 92.9802C17.6516 93.1732 17.7734 93.3458 17.8547 93.4474C18.2609 94.0771 18.6672 94.7068 19.1141 95.306C19.1344 95.3365 19.1547 95.3568 19.175 95.3771L19.3375 95.6005C19.7031 96.1287 20.0789 96.6365 20.4141 97.0529L21.8969 98.9318C21.9172 98.9521 22.0797 99.1451 22.0899 99.1654L22.3031 99.4091C22.75 99.9576 23.2274 100.506 23.7047 101.034C23.7758 101.115 23.8469 101.186 23.918 101.268C24.375 101.765 24.8422 102.263 25.3297 102.781L25.7969 103.228C26.1828 103.634 26.5688 104.03 26.975 104.406C26.975 104.416 27.168 104.599 27.168 104.599L27.5742 104.975C28.0617 105.442 28.5695 105.909 28.9555 106.234C28.9758 106.265 29.3414 106.579 29.3719 106.6C29.8492 107.026 30.3266 107.433 30.8141 107.829L33.3023 109.799C33.7188 110.104 34.1453 110.408 34.6328 110.764C34.7953 110.886 34.968 111.008 35.1406 111.119C35.2117 111.18 35.293 111.241 35.3438 111.272L37.2125 112.521C37.893 112.968 38.5734 113.384 39.4063 113.882L39.8531 114.136C40.3711 114.44 40.8992 114.745 41.3969 115.009C41.6914 115.172 41.9859 115.314 42.2398 115.446C42.5953 115.639 42.9813 115.852 43.5703 116.136C43.6211 116.167 44.0375 116.37 44.0883 116.39C44.6773 116.685 45.2766 116.959 46.0281 117.294C46.0281 117.304 46.2719 117.416 46.2719 117.416C46.9625 117.711 47.6328 117.995 48.5164 118.351C48.6586 118.411 48.8008 118.462 48.8313 118.472C49.4609 118.716 50.1211 118.96 50.6594 119.153C50.7102 119.173 50.9844 119.285 51.0352 119.305C51.7563 119.549 52.4672 119.783 53.3813 120.067C53.5336 120.118 53.6961 120.168 53.7164 120.168L54.2344 120.331C54.8641 120.524 55.4938 120.727 56.1742 120.859C61.0086 121.743 65.7313 122.2 70.2 122.2H70.2102C107.453 122.2 119.316 92.2287 119.438 91.924C119.895 90.7154 119.397 89.3544 118.259 88.7247C117.142 88.1052 115.72 88.3997 114.928 89.4255C105.371 102.009 87.3438 106.681 66.7063 101.938C66.2086 101.816 65.7008 101.674 65.2031 101.522L64.2281 101.227C63.568 101.024 62.9078 100.801 62.268 100.577C62.2578 100.577 61.9633 100.465 61.9633 100.465C61.3945 100.272 60.8258 100.049 60.3281 99.856L59.7594 99.6326C59.1297 99.3787 58.5 99.1146 57.8906 98.8404L57.5352 98.688C56.9867 98.4341 56.4586 98.1904 55.9305 97.9263C55.8899 97.906 55.4734 97.7029 55.4328 97.6927C55.0672 97.5099 54.7016 97.3169 54.2344 97.063L52.1117 95.9255C51.8984 95.7833 51.675 95.6513 51.4617 95.5396C50.8219 95.1435 50.1617 94.7474 49.5117 94.331C49.3594 94.2396 49.2273 94.138 48.9734 93.9654C48.5266 93.681 48.0898 93.3865 47.45 92.9396L47.1961 92.7568C46.7594 92.4521 46.3328 92.1271 45.9773 91.863C45.7539 91.7005 45.5305 91.5177 45.1648 91.2435C44.8398 90.9896 44.5149 90.7458 44.2102 90.5021L43.6414 90.0349C43.1641 89.649 42.7172 89.2427 42.25 88.8466C42.1891 88.7857 42.1383 88.7451 42.0672 88.6943C41.5492 88.2169 41.0211 87.7396 40.3914 87.1404L38.5531 85.3122C38.1063 84.8552 37.6594 84.388 37.1516 83.8294C36.6844 83.3115 36.2375 82.7935 35.6383 82.0826L34.5414 80.7419C34.4094 80.549 34.2672 80.356 34.0945 80.1529C33.7188 79.6451 33.343 79.1474 32.9672 78.6193C22.8516 64.6849 20.2109 35.5974 28.0922 24.9435C28.8844 23.8771 28.7422 22.374 27.7469 21.4701C27.2594 21.0232 26.6297 20.7997 26.0102 20.7997Z" fill="white"/>
</svg>
