<svg width="112" height="112" viewBox="0 0 112 112" fill="none" xmlns="http://www.w3.org/2000/svg">
<g clip-path="url(#clip0)">
<path d="M110.338 25.3377C110.32 25.2869 110.3 25.2372 110.276 25.189C110.245 25.0949 110.206 25.0034 110.16 24.9155C110.125 24.8609 110.085 24.809 110.042 24.7602C109.994 24.6884 109.941 24.6197 109.885 24.5546C109.834 24.5065 109.771 24.4671 109.716 24.4233C109.654 24.3696 109.588 24.3199 109.519 24.2746L88.4625 12.1515C88.1965 11.9979 87.8947 11.917 87.5875 11.917C87.2803 11.917 86.9785 11.9979 86.7125 12.1515L65.6513 24.2812C65.5837 24.327 65.5194 24.3774 65.4588 24.4321C65.3991 24.4722 65.3421 24.516 65.2881 24.5633C65.2309 24.6273 65.1782 24.6953 65.1306 24.7668C65.0934 24.8193 65.0453 24.8652 65.0125 24.9221C64.9683 25.0105 64.9303 25.1018 64.8988 25.1955C64.8813 25.2458 64.8528 25.2918 64.8375 25.3443C64.7974 25.4926 64.7768 25.6456 64.7763 25.7993V48.8205L47.2281 58.9246V13.8774C47.2285 13.7229 47.2079 13.5691 47.1669 13.4202C47.1538 13.3677 47.1231 13.3218 47.1056 13.2715C47.0751 13.1781 47.037 13.0874 46.9919 13.0002C46.9613 12.9433 46.9109 12.8974 46.8738 12.8427C46.8256 12.7709 46.773 12.7022 46.7163 12.6371C46.6617 12.5904 46.6047 12.5466 46.5456 12.5058C46.4843 12.4527 46.4201 12.403 46.3531 12.3571L25.2897 0.233967C25.0237 0.0803727 24.7219 -0.000488281 24.4147 -0.000488281C24.1075 -0.000488281 23.8057 0.0803727 23.5397 0.233967L2.48063 12.3571C2.41226 12.4018 2.34786 12.4523 2.28813 12.508C2.22781 12.5481 2.17009 12.5919 2.11532 12.6393C2.05874 12.7033 2.00684 12.7713 1.96001 12.8427C1.92063 12.8974 1.87251 12.9433 1.8397 13.0002C1.79487 13.0873 1.75755 13.178 1.72813 13.2715C1.70424 13.3191 1.68306 13.368 1.6647 13.418C1.62445 13.5679 1.60386 13.7223 1.60345 13.8774V85.9993C1.60261 86.3073 1.68307 86.61 1.83671 86.877C1.99034 87.1439 2.21171 87.3656 2.47845 87.5196L44.5878 111.766C44.6814 111.813 44.7787 111.853 44.8788 111.884C44.9247 111.901 44.9684 111.928 45.0166 111.941C45.3103 112.02 45.6197 112.02 45.9134 111.941C45.9572 111.93 45.9944 111.906 46.0338 111.893C46.1394 111.86 46.2419 111.817 46.34 111.766L88.4625 87.5196C88.7292 87.3656 88.9506 87.1439 89.1042 86.877C89.2579 86.61 89.3383 86.3073 89.3375 85.9993V62.9737L109.515 51.3558C109.783 51.2009 110.006 50.9775 110.16 50.7085C110.313 50.4395 110.393 50.1344 110.39 49.8246V25.7949C110.391 25.6409 110.374 25.4874 110.338 25.3377ZM24.4125 3.7799L41.9541 13.8752L24.4103 23.9771L6.87095 13.8774L24.4125 3.7799ZM43.7172 16.9049V60.9437L33.5388 66.804L26.1691 71.0477V27.0155L36.3475 21.1552L43.7172 16.9049ZM43.7172 107.201L5.1122 84.9843V16.9137L12.4819 21.153L22.6581 27.0155V74.0862C22.6626 74.1523 22.6713 74.218 22.6844 74.283C22.6896 74.3698 22.7013 74.4561 22.7194 74.5412C22.7416 74.609 22.7694 74.6748 22.8025 74.738C22.8269 74.8134 22.8576 74.8866 22.8944 74.9568C22.9348 75.0161 22.9786 75.0731 23.0256 75.1274C23.0694 75.192 23.1176 75.2534 23.17 75.3112C23.2203 75.3593 23.2838 75.3943 23.3384 75.438C23.3982 75.4899 23.461 75.5381 23.5266 75.5824L43.6931 86.9968L43.7172 107.201ZM45.4672 83.9758L27.9541 74.0621L46.3488 63.4724L66.5306 51.8546L84.0591 61.9455L71.1966 69.2868L45.4672 83.9758ZM85.8309 84.9755L47.2238 107.211V87.0187L75.8188 70.6999L85.8309 64.9796V84.9755ZM85.8309 58.9158L78.4613 54.6874L68.2828 48.8271V28.829L75.6525 33.0727L85.8309 38.9374V58.9158ZM87.5809 35.8858L70.0372 25.7862L87.5809 15.6887L105.12 25.784L87.5809 35.8858ZM89.3309 58.9158V38.9374L99.5313 33.0727L106.899 28.829V48.8205L89.3309 58.9158Z" fill="white"/>
</g>
<defs>
<clipPath id="clip0">
<rect width="112" height="112" fill="white"/>
</clipPath>
</defs>
</svg>
