<svg width="94" height="94" viewBox="0 0 94 94" fill="none" xmlns="http://www.w3.org/2000/svg">
<path d="M94 47C94 72.9574 72.9574 94 47 94C39.2453 94 31.9293 92.122 25.4819 88.7959C18.1566 85.0169 11.9526 79.3687 7.50062 72.4819C2.75486 65.1407 0 56.3921 0 47C0 21.0426 21.0426 0 47 0C72.9574 0 94 21.0426 94 47Z" fill="white"/>
<path d="M7.50062 72.4819L2.83133 94L25.4819 88.7959C18.1566 85.0169 11.9526 79.3687 7.50062 72.4819Z" fill="white"/>
<path d="M88 46.5C88 69.4198 69.4198 88 46.5 88C39.6528 88 33.1929 86.3417 27.5 83.4049C21.0319 80.0681 15.5539 75.0809 11.6229 69C7.43249 62.5179 5 54.793 5 46.5C5 23.5802 23.5802 5 46.5 5C69.4198 5 88 23.5802 88 46.5Z" fill="#C4C4C4"/>
<path d="M11.6229 69L7.5 88L27.5 83.4049C21.0319 80.0681 15.5539 75.0809 11.6229 69Z" fill="#C4C4C4"/>
<path d="M80 47C80 65.2254 65.2254 80 47 80C41.5552 80 36.4184 78.6814 31.8916 76.3461C26.7482 73.6927 22.3922 69.727 19.2664 64.8916C15.9343 59.7371 14 53.5944 14 47C14 28.7746 28.7746 14 47 14C65.2254 14 80 28.7746 80 47Z" fill="black"/>
<path d="M19.2664 64.8916L15.988 80L31.8916 76.3461C26.7482 73.6927 22.3922 69.727 19.2664 64.8916Z" fill="black"/>
</svg>
