<svg width="108" height="108" viewBox="0 0 108 108" fill="none" xmlns="http://www.w3.org/2000/svg">
<g clip-path="url(#clip0)">
<path d="M107.586 104.449C105.736 101.841 102.739 99.677 99.5663 97.3852C96.1496 94.9221 92.6407 92.3886 90.8827 89.4443C97.5515 88.0513 105.989 85.5266 106.395 85.4057C107.121 85.1882 107.689 84.6191 107.905 83.8939C108.122 83.1687 107.96 82.3822 107.472 81.8021C107.037 81.2857 96.8219 69.2997 80.3338 63.4198C79.6065 61.9631 78.7957 60.0955 77.8532 57.9355C71.2129 42.7002 57.4274 11.0817 21.0563 6.82772C18.158 4.87002 10.5622 0.000976562 6.74996 0.000976562C2.01929 0.000976562 0 2.02027 0 6.75094C0 9.05373 1.87417 11.7453 4.93063 15.9486C6.4247 18.0031 8.92535 21.4418 9.00002 22.5009C9.00002 26.1834 13.2715 38.1058 17.5672 43.2056C17.4442 43.4671 17.321 43.7241 17.2002 43.9791C15.2973 47.989 13.4999 51.777 13.4999 60.7506C13.4999 72.5675 19.16 78.7505 24.7498 78.7505C28.2193 78.7505 29.9462 74.8129 30.7769 70.2031C33.8597 76.4586 38.8958 84.6084 45.9512 89.5894C46.9685 90.3013 48.3725 90.0596 49.0889 89.0488C49.8052 88.0315 49.5635 86.6296 48.5482 85.9111C37.3598 78.0141 31.447 60.2317 31.3877 60.0516C31.045 59.0013 29.9683 58.3508 28.8959 58.5288C27.8039 58.7024 26.9996 59.6451 26.9996 60.7502C26.9996 66.929 25.822 73.5119 24.7496 74.2501C21.5043 74.2501 17.9996 69.0887 17.9996 60.7502C17.9996 52.7895 19.4409 49.753 21.2647 45.9077C21.6054 45.1892 21.9568 44.451 22.3063 43.6644C22.7083 42.7569 22.471 41.6934 21.7197 41.0452C18.2525 38.0596 13.4999 25.489 13.4999 22.5007C13.4999 20.1979 11.6258 17.5064 8.56929 13.303C7.07522 11.2485 4.57457 7.80984 4.4999 6.75073C4.4999 4.50067 4.4999 4.50067 6.74996 4.50067C8.57372 4.50067 14.5173 7.79866 18.9777 10.8572C19.2832 11.0661 19.6369 11.1979 20.0081 11.2373C54.2041 14.9462 66.9062 44.0818 73.7288 59.7352C74.8779 62.3719 75.871 64.6504 76.7675 66.316C77.0377 66.8191 77.4883 67.1994 78.0266 67.3816C89.2568 71.1873 97.6306 78.2997 101.555 82.1187C97.7228 83.1932 91.6035 84.828 87.3803 85.531C86.7606 85.6344 86.2113 85.9925 85.8686 86.5176C85.5237 87.0428 85.4138 87.6866 85.5676 88.2951C86.9496 93.8322 92.2538 97.6599 96.9318 101.035C99.7948 103.1 102.497 105.051 103.912 107.051C104.352 107.671 105.046 108 105.752 108C106.202 108 106.655 107.866 107.05 107.587C108.063 106.869 108.305 105.465 107.586 104.449Z" fill="white"/>
<path d="M20.2499 18.0003C20.2499 19.244 21.2563 20.2504 22.4999 20.2504C23.7413 20.2504 24.75 21.2589 24.75 22.5004C24.75 23.7441 25.7564 24.7505 27.0001 24.7505C28.2437 24.7505 29.2501 23.7441 29.2501 22.5004C29.2501 18.7783 26.2223 15.7505 22.5001 15.7505C21.2563 15.7503 20.2499 16.7567 20.2499 18.0003Z" fill="white"/>
<path d="M107.586 104.449C105.736 101.841 102.739 99.677 99.5663 97.3852C96.1496 94.9221 92.6407 92.3886 90.8827 89.4443C97.5515 88.0513 105.989 85.5266 106.395 85.4057C107.121 85.1882 107.689 84.6191 107.905 83.8939C108.122 83.1687 107.96 82.3822 107.472 81.8021C107.037 81.2857 96.8219 69.2997 80.3338 63.4198C79.6065 61.9631 78.7957 60.0955 77.8532 57.9355C71.2129 42.7002 57.4274 11.0817 21.0563 6.82772C18.158 4.87002 10.5622 0.000976562 6.74996 0.000976562C2.01929 0.000976562 0 2.02027 0 6.75094C0 9.05373 1.87417 11.7453 4.93063 15.9486C6.4247 18.0031 8.92535 21.4418 9.00002 22.5009C9.00002 26.1834 13.2715 38.1058 17.5672 43.2056C17.4442 43.4671 17.321 43.7241 17.2002 43.9791C15.2973 47.989 13.4999 51.777 13.4999 60.7506C13.4999 72.5675 19.16 78.7505 24.7498 78.7505C28.2193 78.7505 29.9462 74.8129 30.7769 70.2031C33.8597 76.4586 38.8958 84.6084 45.9512 89.5894C46.9685 90.3013 48.3725 90.0596 49.0889 89.0488C49.8052 88.0315 49.5635 86.6296 48.5482 85.9111C37.3598 78.0141 31.447 60.2317 31.3877 60.0516C31.045 59.0013 29.9683 58.3508 28.8959 58.5288C27.8039 58.7024 26.9996 59.6451 26.9996 60.7502C26.9996 66.929 25.822 73.5119 24.7496 74.2501C21.5043 74.2501 17.9996 69.0887 17.9996 60.7502C17.9996 52.7895 19.4409 49.753 21.2647 45.9077C21.6054 45.1892 21.9568 44.451 22.3063 43.6644C22.7083 42.7569 22.471 41.6934 21.7197 41.0452C18.2525 38.0596 13.4999 25.489 13.4999 22.5007C13.4999 20.1979 11.6258 17.5064 8.56929 13.303C7.07522 11.2485 4.57457 7.80984 4.4999 6.75073C4.4999 4.50067 4.4999 4.50067 6.74996 4.50067C8.57372 4.50067 14.5173 7.79866 18.9777 10.8572C19.2832 11.0661 19.6369 11.1979 20.0081 11.2373C54.2041 14.9462 66.9062 44.0818 73.7288 59.7352C74.8779 62.3719 75.871 64.6504 76.7675 66.316C77.0377 66.8191 77.4883 67.1994 78.0266 67.3816C89.2568 71.1873 97.6306 78.2997 101.555 82.1187C97.7228 83.1932 91.6035 84.828 87.3803 85.531C86.7606 85.6344 86.2113 85.9925 85.8686 86.5176C85.5237 87.0428 85.4138 87.6866 85.5676 88.2951C86.9496 93.8322 92.2538 97.6599 96.9318 101.035C99.7948 103.1 102.497 105.051 103.912 107.051C104.352 107.671 105.046 108 105.752 108C106.202 108 106.655 107.866 107.05 107.587C108.063 106.869 108.305 105.465 107.586 104.449ZM20.2499 18.0008C20.2499 19.2445 21.2563 20.2509 22.4999 20.2509C23.7413 20.2509 24.75 21.2593 24.75 22.5009C24.75 23.7446 25.7564 24.751 27.0001 24.751C28.2437 24.751 29.2501 23.7446 29.2501 22.5009C29.2501 18.7787 26.2223 15.751 22.5001 15.751C21.2563 15.7507 20.2499 16.7571 20.2499 18.0008Z" fill="url(#paint0_linear)"/>
</g>
<defs>
<linearGradient id="paint0_linear" x1="-10.1359" y1="26.1427" x2="117.587" y2="85.6907" gradientUnits="userSpaceOnUse">
<stop stop-color="white" stop-opacity="0.2"/>
<stop offset="1" stop-color="white" stop-opacity="0"/>
</linearGradient>
<clipPath id="clip0">
<rect width="108" height="108" fill="white"/>
</clipPath>
</defs>
</svg>
