<svg width="161" height="161" viewBox="0 0 161 161" fill="none" xmlns="http://www.w3.org/2000/svg">
<path d="M140.304 66.1938C139.959 66.1938 139.624 66.2651 139.327 66.433L129.936 71.8564C129.328 72.2064 128.958 72.8679 128.958 73.5713V84.3987C128.958 85.1018 129.328 85.7622 129.936 86.1133L132.388 87.5267C133.58 88.1142 134.019 88.1048 134.562 88.1048C136.326 88.1048 137.333 87.0342 137.333 85.1736V74.4916C137.333 74.3406 137.202 74.2325 137.054 74.2325H135.878C135.727 74.2325 135.599 74.3434 135.599 74.4916V85.1791C135.599 86.0039 134.739 86.8336 133.345 86.1363L130.796 84.6409C130.706 84.5919 130.636 84.5024 130.636 84.4018V73.5743C130.636 73.4718 130.705 73.3671 130.796 73.3152L140.168 67.9112C140.255 67.8608 140.36 67.8608 140.447 67.9112L149.818 73.3152C149.908 73.3687 149.978 73.4685 149.978 73.5743V84.4018C149.978 84.5051 149.926 84.611 149.838 84.6609L140.447 90.0649C140.364 90.1129 140.253 90.1129 140.168 90.0649L137.755 88.6294C137.683 88.5873 137.585 88.5906 137.516 88.6294C136.85 89.0068 136.725 89.0506 136.1 89.2673C135.947 89.3208 135.712 89.4042 136.18 89.6664L139.331 91.5232C139.63 91.6966 139.965 91.7823 140.308 91.7823C140.656 91.7823 140.985 91.6991 141.285 91.5232L150.676 86.1191C151.284 85.7655 151.653 85.1076 151.653 84.4045V73.5771C151.653 72.8738 151.284 72.2136 150.676 71.8622L141.285 66.4388C140.991 66.2709 140.653 66.1997 140.308 66.1997L140.304 66.1938ZM142.817 73.9307C140.142 73.9307 138.55 75.0689 138.55 76.9614C138.55 79.0122 140.13 79.5786 142.697 79.8325C145.768 80.1332 146.007 80.584 146.007 81.1885C146.007 82.2368 145.171 82.6839 143.196 82.6839C140.714 82.6839 140.168 82.0642 139.985 80.8271C139.964 80.6946 139.862 80.5879 139.726 80.5879H138.507C138.433 80.5896 138.363 80.6195 138.311 80.6715C138.259 80.7235 138.23 80.7935 138.228 80.867C138.228 82.4475 139.088 84.3164 143.193 84.3164C146.165 84.3164 147.879 83.1525 147.879 81.1062C147.879 79.0831 146.494 78.5363 143.612 78.1547C140.702 77.7668 140.421 77.5811 140.421 76.8985C140.421 76.3354 140.657 75.5821 142.814 75.5821C144.741 75.5821 145.453 75.9978 145.745 77.297C145.771 77.419 145.878 77.5187 146.004 77.5187H147.224C147.299 77.5187 147.371 77.4727 147.423 77.419C147.474 77.3616 147.51 77.297 147.503 77.2194C147.315 74.9819 145.823 73.9293 142.817 73.9293L142.817 73.9307Z" fill="white"/>
<path d="M85.0917 52.0004C84.9868 52.0006 84.8837 52.0281 84.7927 52.0802C84.7021 52.1332 84.6269 52.2089 84.5744 52.2998C84.522 52.3907 84.4942 52.4937 84.4937 52.5987V67.8524C84.4937 68.0021 84.4238 68.1362 84.2941 68.2113C84.2306 68.2484 84.1583 68.2679 84.0848 68.2679C84.0112 68.2679 83.9389 68.2484 83.8754 68.2113L81.3829 66.7758C81.2011 66.6706 80.9948 66.6152 80.7847 66.6152C80.5747 66.6152 80.3683 66.6706 80.1865 66.7758L70.237 72.5182C69.8651 72.7327 69.6384 73.1456 69.6384 73.5749V85.0599C69.6381 85.2701 69.6933 85.4766 69.7984 85.6586C69.9034 85.8407 70.0546 85.9918 70.2368 86.0967L80.1865 91.8393C80.3682 91.9448 80.5746 92.0003 80.7847 92.0003C80.9948 92.0003 81.2012 91.9448 81.3829 91.8393L91.3326 86.0967C91.5148 85.9918 91.666 85.8407 91.7711 85.6586C91.8761 85.4766 91.9313 85.2701 91.931 85.0599V56.4269C91.931 55.9913 91.6932 55.5825 91.313 55.3703L85.391 52.0599C85.2979 52.0081 85.1948 51.999 85.0917 52.0001V52.0004ZM21.086 66.3368C20.8962 66.3446 20.718 66.3775 20.5475 66.4765L10.598 72.2189C10.4158 72.3236 10.2645 72.4746 10.1594 72.6567C10.0544 72.8388 9.9994 73.0454 10 73.2556L10.0202 88.6692C10.0202 88.8837 10.1311 89.0827 10.3195 89.1875C10.5044 89.2983 10.7336 89.2983 10.9176 89.1875L16.8196 85.7976C17.1937 85.5759 17.4376 85.1891 17.4376 84.7612V77.5627C17.4376 77.1332 17.6635 76.7397 18.0362 76.5263L20.5486 75.0708C20.7302 74.9652 20.9367 74.9101 21.1467 74.9112C21.3568 74.9099 21.5634 74.965 21.745 75.0708L24.2564 76.5254C24.6285 76.7388 24.8544 77.1329 24.8544 77.5619V84.7601C24.8544 85.1885 25.1038 85.5776 25.4724 85.7965L31.3744 89.1864C31.5601 89.2972 31.7887 89.2972 31.9725 89.1864C32.1554 89.081 32.2718 88.8823 32.2718 88.6681L32.2917 73.255C32.2929 73.0447 32.2381 72.8379 32.133 72.6557C32.028 72.4735 31.8763 72.3226 31.6937 72.2183L21.7442 66.4762C21.576 66.3775 21.3969 66.3443 21.2057 66.3365H21.0865L21.086 66.3368ZM110.494 66.4765C110.284 66.4759 110.078 66.531 109.896 66.6361L99.9464 72.3788C99.575 72.5935 99.3478 72.9862 99.3478 73.4152V84.9003C99.3478 85.3321 99.5911 85.7234 99.9658 85.9367L109.836 91.5625C110.2 91.7703 110.645 91.7861 111.012 91.5819L116.994 88.2519C117.184 88.1466 117.312 87.9498 117.313 87.7337C117.313 87.5175 117.201 87.3229 117.013 87.2154L107.003 81.4728C106.816 81.3658 106.685 81.1493 106.685 80.9343V77.343C106.685 77.1285 106.818 76.9317 107.003 76.8247L110.114 75.0301C110.299 74.9231 110.526 74.9231 110.713 75.0301L113.824 76.8247C113.916 76.8771 113.991 76.9526 114.044 77.0436C114.096 77.1346 114.124 77.2379 114.123 77.343V80.1744C114.123 80.2795 114.151 80.3828 114.203 80.4738C114.256 80.5648 114.331 80.6403 114.422 80.6926C114.609 80.8002 114.835 80.8007 115.021 80.6926L120.983 77.2238C121.353 77.0088 121.581 76.615 121.581 76.1874V73.4161C121.581 73.2059 121.526 72.9995 121.421 72.8175C121.316 72.6356 121.165 72.4844 120.983 72.3793L111.093 66.6367C110.911 66.5314 110.705 66.4763 110.495 66.477L110.494 66.4765ZM80.7447 75.0508C80.8003 75.0506 80.8552 75.0642 80.9043 75.0905L84.3138 77.0645C84.4064 77.1179 84.4734 77.2169 84.4734 77.3236V81.2716C84.4734 81.3788 84.4069 81.4775 84.3138 81.5307L80.9043 83.5047C80.8114 83.5573 80.6981 83.5573 80.605 83.5047L77.1955 81.5307C77.1026 81.4772 77.0358 81.3783 77.0358 81.2716V77.323C77.0358 77.2161 77.1029 77.1179 77.1955 77.0639L80.605 75.0902C80.6516 75.0633 80.6926 75.0506 80.7447 75.0506V75.0503V75.0508Z" fill="white"/>
<path d="M50.9755 66.4163C50.7654 66.4159 50.5589 66.471 50.3769 66.5759L40.4272 72.2986C40.0552 72.5131 39.8291 72.9263 39.8291 73.3553V84.8404C39.8285 85.0505 39.8836 85.2571 39.9886 85.4391C40.0936 85.6212 40.2449 85.7722 40.4272 85.8769L50.3769 91.6195C50.5586 91.725 50.765 91.7805 50.9751 91.7805C51.1852 91.7805 51.3916 91.725 51.5733 91.6195L61.523 85.8769C61.7052 85.772 61.8564 85.6209 61.9614 85.4388C62.0665 85.2568 62.1217 85.0503 62.1214 84.8401V73.3551C62.1214 72.9255 61.8952 72.5126 61.5228 72.2984L51.573 66.5757C51.3912 66.4702 51.1846 66.4151 50.9744 66.416L50.9755 66.4163ZM110.475 76.6654C110.435 76.6654 110.391 76.6654 110.355 76.6848L108.441 77.8016C108.406 77.8214 108.376 77.8502 108.355 77.8852C108.334 77.9202 108.322 77.9601 108.322 78.0009V80.1943C108.322 80.2769 108.369 80.3523 108.441 80.3939L110.355 81.4905C110.388 81.5108 110.426 81.5216 110.465 81.5216C110.504 81.5216 110.541 81.5108 110.574 81.4905L112.488 80.3939C112.559 80.3531 112.608 80.2769 112.608 80.1943V78.0009C112.608 77.9183 112.56 77.8429 112.488 77.8013L110.574 76.6845C110.539 76.6634 110.514 76.6651 110.475 76.6651L110.475 76.6654Z" fill="white"/>
</svg>
