<svg width="124" height="124" viewBox="0 0 124 124" fill="none" xmlns="http://www.w3.org/2000/svg">
<path d="M124 62C124 65.7503 123.666 69.4223 123.028 72.9878C117.843 101.989 92.4914 124 62 124C39.0271 124 18.972 111.506 8.26247 92.9419C5.6483 88.4147 3.59358 83.5281 2.18647 78.3731C0.759258 73.1576 0 67.666 0 62C0 27.7583 27.7583 0 62 0C90.2618 0 114.105 18.9088 121.573 44.7664C123.152 50.2377 124 56.0201 124 62Z" fill="#151515"/>
<path d="M31.5263 43.1672H8.69259L2.18646 78.3731C3.59357 83.528 5.64829 88.4147 8.26246 92.9419H10.3806L12.9011 79.3069H25.4478C40.725 79.3069 44.8323 65.5911 45.8168 58.8545C46.8037 52.1204 41.8766 43.1672 31.5263 43.1672ZM34.8389 59.9906C34.2797 63.8094 31.458 71.5858 22.7983 71.5858H14.3283L18.1142 51.0955H26.736C35.1402 51.0955 35.3981 56.172 34.8389 59.9906Z" fill="white"/>
<path d="M121.573 44.7664C119.632 43.7642 117.319 43.167 114.647 43.167H91.813L82.6143 92.9419H93.5008L96.0213 79.3069H108.568C115.363 79.3069 119.948 76.5942 123.028 72.988C123.666 69.4223 124 65.7502 124 62C124 56.0201 123.152 50.2377 121.573 44.7664ZM117.959 59.9905C117.4 63.8094 114.578 71.5858 105.916 71.5858H97.4487L101.235 51.0955H109.856C118.261 51.0955 118.519 56.172 117.959 59.9905Z" fill="white"/>
<path d="M74.8935 43.3319C70.4627 43.3319 64.5512 43.3319 61.6708 43.3319L64.1528 29.9023H53.311L44.112 79.6758H54.9538L60.2439 51.0526C62.1983 51.0526 64.7946 51.0526 67.1728 51.0526C71.7722 51.0526 74.8935 52.0383 74.2362 56.3093C73.5792 60.5802 69.8011 79.4711 69.8011 79.4711H80.807C80.807 79.4711 85.078 58.4449 85.7351 52.5309C86.3924 46.6172 80.9715 43.3319 74.8935 43.3319Z" fill="white"/>
</svg>
