<svg width="118" height="118" viewBox="0 0 118 118" fill="none" xmlns="http://www.w3.org/2000/svg">
<path d="M99.8557 59C109.132 49.5321 114.758 40.3941 115.721 33.1976C116.287 28.9921 115.339 25.4838 112.899 22.7739C109.915 19.453 105.062 17.7738 98.4801 17.7738C93.3453 17.7738 87.3259 18.7933 80.5832 20.8099C75.3284 7.57131 67.4912 0 58.9981 0C50.505 0 42.6716 7.57131 37.4168 20.8099C30.6703 18.7933 24.6509 17.7738 19.5199 17.7738C12.9345 17.7738 8.08455 19.4568 5.09735 22.7739C2.65737 25.4876 1.70911 28.9921 2.27506 33.1938C3.23831 40.3866 8.86789 49.5284 18.1443 59C8.86414 68.4679 3.23831 77.6097 2.27506 84.8024C1.70161 89.0079 2.65362 92.5124 5.09735 95.2261C8.08455 98.547 12.9345 100.23 19.5199 100.23C24.6472 100.23 30.6666 99.2104 37.4168 97.1864C42.6716 110.429 50.5088 118 58.9981 118C67.4912 118 75.3284 110.425 80.5832 97.1864C87.3372 99.2029 93.3528 100.23 98.4801 100.23C105.062 100.23 109.915 98.547 112.899 95.2298C115.339 92.5162 116.291 89.0079 115.721 84.8024C114.758 77.6097 109.132 68.4716 99.8557 59ZM86.0366 55.5442C87.3896 56.6911 88.7015 57.8493 89.9533 59C88.7015 60.1544 87.3896 61.3089 86.0366 62.4558C86.0741 61.3089 86.0928 60.1619 86.0928 59C86.0928 57.8381 86.0703 56.6874 86.0366 55.5442ZM107.783 33.3662C107.011 39.0822 102.202 46.7022 94.2073 54.8808C91.5312 52.4107 88.6227 49.9519 85.5493 47.5531C84.8897 40.3941 83.6153 33.7073 81.7601 27.6503C93.885 24.0333 103.203 24.202 106.467 27.8264C107.659 29.1458 108.101 31.0086 107.783 33.3662ZM85.5531 70.4469C88.6227 68.0443 91.5312 65.5893 94.2111 63.1192C102.206 71.2978 107.014 78.9178 107.787 84.6338C108.105 86.9914 107.663 88.8542 106.467 90.1773C103.21 93.8018 93.8925 93.9705 81.7638 90.3535C83.6191 84.2964 84.8934 77.6097 85.5531 70.4469ZM78.8666 75.402C78.1919 79.986 77.2362 84.3489 76.0218 88.4082C72.5548 87.1413 68.9754 85.6308 65.3436 83.9104C69.0504 81.8189 72.3674 79.7949 75.4408 77.7559C76.6102 76.9762 77.7459 76.1929 78.8666 75.402ZM58.9981 110.163C53.4285 110.163 47.9451 104.263 43.8785 93.9405C48.8596 92.1413 53.942 89.9262 59.0019 87.3512C64.0467 89.9224 69.1254 92.1301 74.1215 93.9405C70.0511 104.259 64.5677 110.163 58.9981 110.163ZM42.5554 77.7521C45.6101 79.7836 48.9271 81.8076 52.6489 83.9066C49.0171 85.627 45.4377 87.1375 41.9707 88.4044C40.7526 84.3451 39.7968 79.9785 39.1259 75.3945C40.2466 76.1929 41.3898 76.9762 42.5554 77.7521ZM39.1259 42.6055C39.8006 38.0177 40.7563 33.6549 41.9707 29.5956C45.4489 30.8662 49.032 32.3767 52.6527 34.0934C48.9533 36.1811 45.6363 38.2014 42.5554 40.2516C41.3898 41.0275 40.2466 41.8109 39.1259 42.6055ZM58.9981 7.84118C64.5715 7.84118 70.0549 13.7408 74.1215 24.0633C69.1254 25.8699 64.0468 28.0851 58.9981 30.6526C53.9457 28.0813 48.8634 25.8661 43.8747 24.0595C47.9451 13.7408 53.4248 7.84118 58.9981 7.84118ZM75.4446 40.2516C72.3749 38.2126 69.0579 36.1886 65.3511 34.0934C68.9867 32.3692 72.5698 30.8587 76.0293 29.5956C77.2474 33.6511 78.2032 38.014 78.8778 42.598C77.7459 41.8071 76.6102 41.0238 75.4446 40.2516ZM80.0584 59C80.0584 61.7062 79.9497 64.4911 79.7286 67.5046C77.1537 69.4537 74.56 71.2903 72.0151 72.9807C67.8735 75.7393 63.4958 78.3481 58.9981 80.7469C54.508 78.3518 50.134 75.7431 45.9811 72.9807C43.425 71.2828 40.8313 69.4387 38.2639 67.4971C38.0427 64.4873 37.9341 61.7024 37.9341 58.9963C37.9341 56.2938 38.0427 53.5052 38.2639 50.4954C40.8425 48.5463 43.4362 46.706 45.9811 45.0156C50.1227 42.2607 54.5005 39.6482 58.9981 37.2456C63.4808 39.6369 67.8548 42.2494 72.0151 45.0118C74.56 46.7022 77.1537 48.5463 79.7286 50.4879C79.9497 53.5089 80.0584 56.2976 80.0584 59ZM31.9597 62.4558C30.6216 61.3164 29.3098 60.1619 28.0467 59C29.3023 57.8381 30.6141 56.6874 31.9597 55.5442C31.9297 56.6874 31.9109 57.8418 31.9109 59C31.9109 60.1582 31.9297 61.3089 31.9597 62.4558ZM32.4394 47.5568C29.3697 49.9557 26.465 52.4145 23.7926 54.8808C15.7943 46.6985 10.9855 39.0822 10.2097 33.3625C9.89486 31.0086 10.3371 29.1458 11.5253 27.8264C13.1931 25.9711 16.439 24.9891 20.9066 24.9891C25.1607 24.9891 30.3143 25.8849 36.2287 27.6503C34.3772 33.7036 33.1028 40.3941 32.4394 47.5568ZM10.2097 84.6375C10.9818 78.9253 15.7943 71.3015 23.7926 63.1192C26.4613 65.5818 29.3697 68.0368 32.4394 70.4469C33.1028 77.6097 34.3772 84.2964 36.2324 90.3535C24.1075 93.9705 14.7898 93.7943 11.5253 90.1773C10.3371 88.8542 9.89486 86.9914 10.2097 84.6375Z" fill="white"/>
<path d="M58.9982 71.2862C65.7836 71.2862 71.2843 65.7853 71.2843 58.9996C71.2843 52.214 65.7836 46.7131 58.9982 46.7131C52.2127 46.7131 46.712 52.214 46.712 58.9996C46.712 65.7853 52.2127 71.2862 58.9982 71.2862Z" fill="white"/>
</svg>
