<svg width="119" height="119" viewBox="0 0 119 119" fill="none" xmlns="http://www.w3.org/2000/svg">
<path d="M119 59.5C119 61.3385 118.917 63.1551 118.752 64.9498C118.626 66.3706 118.446 67.7742 118.218 69.1611C113.604 97.4271 89.0703 119 59.5 119C44.4379 119 30.685 113.405 20.2033 104.176C16.3297 100.769 12.9029 96.8634 10.0227 92.5602C3.69132 83.1057 0 71.7328 0 59.5C0 26.639 26.639 0 59.5 0C92.361 0 119 26.639 119 59.5Z" fill="#151515"/>
<path d="M103.838 66.2345C102.034 66.9169 102.107 66.929 101.152 65.1902C99.9333 62.9755 99.2848 60.6464 99.2288 58.1134C99.1826 55.9398 99.7776 53.9194 100.526 51.9375C101.123 50.3615 100.346 49.8053 98.9811 49.6619C97.9877 49.5598 96.9629 49.5696 95.9672 49.6716C93.3783 49.9364 93.1233 50.1597 92.4361 52.6734C92.0282 54.1646 91.7025 55.6679 91.025 57.0836C89.3541 60.5685 87.455 63.9249 85.5073 67.2569C85.1575 67.8568 84.8686 68.5027 84.3757 69.0152C82.9646 66.9022 82.4329 64.5685 82.3139 62.1204C82.1949 59.7039 82.9356 57.4575 83.7491 55.2354C84.0236 54.4874 83.7953 54.0235 83.1492 53.7004C82.8626 53.5573 82.5421 53.4236 82.2288 53.3992C80.5677 53.2681 78.9114 53.2874 77.2915 53.7416C76.5628 53.9431 76.0868 54.3512 75.9241 55.1696C75.6085 56.77 75.1155 58.3242 74.4499 59.8203C72.6042 63.9635 70.7706 68.1138 68.9273 72.2596C67.3245 75.8612 65.7459 79.4723 63.8468 82.9307C63.7131 83.1759 63.6016 83.601 63.2664 83.516C62.9264 83.4309 63.0454 83.0133 63.0307 82.7267C62.9215 80.6867 63.4777 78.7413 63.9511 76.7936C64.7016 73.7117 65.5223 70.6445 66.319 67.5723C66.5473 66.6907 66.1636 66.0981 65.4326 65.6755C64.3811 65.0708 63.3343 65.0417 62.1954 65.8891C62.3509 64.6359 62.4188 63.5358 62.3653 62.4358C62.244 59.983 61.1072 58.3875 59.1281 58.0181C57.6832 57.7485 56.3158 58.1687 55.0238 58.7807C52.0123 60.2064 49.5912 62.3556 47.5559 64.9638C47.3179 65.2674 47.0775 65.5467 46.7326 65.7336C42.9125 67.815 39.0948 69.8963 35.2845 71.9969C34.8668 72.23 34.5972 72.1645 34.296 71.8414C32.3773 69.7845 30.1505 68.0869 27.9453 66.3651C24.8634 63.9561 21.6748 61.6732 19.0154 58.7686C17.4612 57.0687 16.1643 55.2058 15.5158 52.9572C14.4569 49.2802 15.2488 45.856 17.0119 42.6018C19.0981 38.7525 22.1921 35.78 25.6041 33.1327C31.0223 28.9312 36.9649 25.5944 43.2282 22.8478C50.242 19.7757 57.5179 17.7964 65.2673 18.095C68.3372 18.214 71.3168 18.7458 74.0515 20.2491C75.9871 21.3129 77.2694 22.8502 77.6313 25.1063C78.0564 27.7484 77.4223 30.1893 76.2495 32.5038C73.6292 37.6743 69.4642 41.3365 64.5413 44.2046C60.4418 46.5918 56.0195 48.1074 51.3395 48.9014C48.7531 49.3409 46.1569 49.6056 43.5559 49.2098C40.5711 48.7557 37.8123 47.7576 35.77 45.3532C35.5343 45.0764 35.2356 44.8844 34.8349 45.0787C34.4245 45.2779 34.4561 45.6421 34.4949 45.9919C34.524 46.2323 34.5897 46.4751 34.6746 46.7036C35.221 48.1779 36.2434 49.29 37.4406 50.2615C40.5542 52.7945 44.2432 53.5377 48.1167 53.613C51.9077 53.6884 55.6404 53.2075 59.3343 52.3236C67.6666 50.3322 74.6465 46.2448 79.7416 39.2408C82.7871 35.0539 84.7155 30.4397 84.5453 25.16C84.4361 21.811 83.3091 18.853 80.8684 16.4488C77.9662 13.5951 74.3648 12.1599 70.5008 11.2979C66.1973 10.341 61.8503 10.205 57.4594 10.7296C53.6393 11.1861 49.9066 11.9682 46.2734 13.2188C40.7143 15.1349 35.3449 17.4882 30.206 20.3491C24.941 23.2778 19.9792 26.6319 15.6274 30.8331C11.7757 34.5512 8.46552 38.6532 6.60034 43.7458C5.80383 45.9266 5.23068 48.1683 5.76502 50.5265C6.44996 53.5621 7.94583 56.1899 9.91305 58.5601C12.888 62.1497 16.5382 64.9764 20.3025 67.6769C23.3261 69.8479 26.4905 71.8249 29.3951 74.1587C30.2184 74.8192 30.2135 74.8192 29.2445 75.3268C28.1128 75.9169 26.9689 76.4852 25.8567 77.1142C21.3714 79.6499 17.0365 82.399 13.4979 86.2193C11.7566 88.1014 10.5738 90.2144 10.0228 92.5602C12.9029 96.8637 16.3298 100.769 20.2033 104.176C26.8115 103.661 31.8702 100.222 35.6078 94.5346C37.4123 91.7879 38.2574 88.6795 38.5755 85.4007C38.8549 82.5107 38.5609 79.7129 37.7109 76.954C37.5629 76.4683 37.0116 75.985 37.2277 75.5576C37.4292 75.1641 38.0366 74.9649 38.4833 74.7077C40.2852 73.6608 42.0921 72.6289 43.9475 71.5628C44.0277 71.9611 43.8722 72.1942 43.8043 72.4467C42.7405 76.3495 41.9998 80.2837 42.8086 84.3394C43.3114 86.8652 44.1493 89.2426 45.7423 91.3337C47.3815 93.4855 51.0415 93.24 52.5276 91.2754C53.9386 89.4102 54.8737 87.307 55.8475 85.2136C56.3819 84.0673 56.8723 82.9017 57.3824 81.7431C57.2876 83.1371 57.2925 84.497 57.3436 85.8523C57.3945 87.188 57.6083 88.5068 58.3028 89.687C59.1381 91.1052 60.7095 91.5183 62.1692 90.7603C63.709 89.9613 64.7581 88.6451 65.5739 87.2171C69.0735 81.0753 72.3204 74.8023 75.0088 68.2524C75.582 66.8609 76.1698 65.4717 76.8182 63.9247C76.9177 64.4323 76.9835 64.743 77.0442 65.054C77.6415 68.1747 78.7053 71.1279 80.2451 73.9037C80.5753 74.4987 80.5388 74.9092 80.1212 75.4798C78.7029 77.4105 77.1485 79.2271 75.6162 81.063C74.329 82.6077 72.9519 84.0843 71.8639 85.7842C70.8878 87.3142 71.4486 88.8805 73.0735 89.228C73.5736 89.3349 74.1008 89.3665 74.6133 89.3591C77.4523 89.3251 80.0726 88.4775 82.5135 87.0883C85.7993 85.2159 87.7472 82.4715 87.6572 78.564C87.6159 76.7862 87.135 75.0791 86.4187 73.4493C86.2608 73.0874 86.2534 72.8253 86.4891 72.4852C88.7647 69.226 90.7754 65.8092 92.6236 62.2926C92.9516 61.6734 93.1821 60.9859 93.7116 60.3814C93.782 60.6266 93.8378 60.7798 93.8694 60.9376C94.4572 63.8519 95.2488 66.7005 96.7352 69.3015C97.1431 70.0132 96.9392 70.3748 96.3758 70.8508C94.4354 72.4999 92.7986 74.4232 91.5138 76.6261C90.5132 78.3406 89.8283 80.1717 89.8357 82.1803C89.8429 84.4145 91.5526 85.7307 93.7311 85.2062C96.0019 84.6621 98.1074 83.7368 99.9967 82.355C104.113 79.3412 105.32 76.1621 104.031 71.7252C103.526 69.979 103.535 70.0083 105.286 69.4789C109.116 68.3228 113.002 68.2742 116.907 68.9106C117.349 68.9833 117.786 69.0661 118.218 69.1607C118.446 67.774 118.626 66.3702 118.752 64.9494C113.757 63.7283 108.768 64.3621 103.838 66.2345ZM22.9136 97.478C21.8038 97.8715 20.6502 98.0391 19.4698 97.9468C18.0004 97.8301 17.0679 96.7933 16.9731 95.234C16.8662 93.4369 17.3982 91.8146 18.1849 90.236C19.6153 87.3702 22.0171 85.4251 24.4678 83.5162C26.8501 81.6585 29.41 80.0724 31.9987 78.5303C32.7831 78.0641 32.7952 78.0689 32.9749 79.004C33.208 80.2037 33.4169 81.4058 33.3391 82.4963C33.5434 89.0362 28.7931 95.3967 22.9136 97.478ZM58.5601 64.5004C58.1473 67.2569 57.2462 69.8821 56.287 72.4757C54.9803 76.0167 53.7078 79.5743 52.0637 82.9793C51.6872 83.7637 51.2913 84.5433 50.6819 85.182C50.1065 85.7867 49.5963 85.7163 49.1982 84.9779C48.4209 83.5353 48.5181 81.9302 48.3919 80.7643C48.4284 74.9164 50.3907 70.1368 53.623 65.8408C54.5264 64.6436 55.6799 63.6697 57.2076 63.2785C58.2445 63.0143 58.7228 63.4319 58.5601 64.5004ZM81.1945 81.8137C80.087 83.7275 78.4914 85.119 76.534 86.1098C76.325 86.2142 76.0557 86.3987 75.8662 86.1535C75.6866 85.9227 75.9755 85.7698 76.1066 85.624C78.0519 83.499 79.9729 81.357 81.7045 79.0523C81.7312 79.0158 81.7967 79.0109 81.9448 78.948C81.9278 80.0143 81.6947 80.9517 81.1945 81.8137ZM94.6269 81.7312C94.338 81.8672 94.0028 82.1221 93.7211 81.9037C93.4104 81.6633 93.534 81.2382 93.6289 80.9128C94.0709 79.4291 94.6659 78.0083 95.4866 76.6846C96.1762 75.5699 97.0313 74.5961 97.971 73.6878C98.3498 73.3236 98.5197 73.3673 98.6485 73.8918C98.7821 74.4285 98.7942 74.9652 98.804 75.5116C98.7798 78.5012 97.2618 80.4903 94.6269 81.7312Z" fill="white"/>
</svg>
